<?xml version="1.0" encoding="UTF-8"?>
<svg xmlns="http://www.w3.org/2000/svg" xmlns:xlink="http://www.w3.org/1999/xlink" width="15px" height="17px" viewBox="0 0 15 17" version="1.1">
<g id="surface1">
<path style=" stroke:none;fill-rule:nonzero;fill:#516278;fill-opacity:1;" d="M 14.683594 9.25 C 15.105469 8.835938 15.105469 8.160156 14.683594 7.746094 L 9.328125 2.433594 C 8.910156 2.019531 8.230469 2.019531 7.8125 2.433594 C 7.394531 2.847656 7.394531 3.523438 7.8125 3.9375 L 11.34375 7.4375 L 1.070312 7.4375 C 0.480469 7.4375 0 7.914062 0 8.5 C 0 9.085938 0.480469 9.5625 1.070312 9.5625 L 11.339844 9.5625 L 7.816406 13.0625 C 7.394531 13.476562 7.394531 14.152344 7.816406 14.566406 C 8.234375 14.980469 8.914062 14.980469 9.332031 14.566406 L 14.6875 9.253906 Z M 14.683594 9.25 "/>
</g>
</svg>
