<?xml version="1.0" encoding="UTF-8"?>
<svg xmlns="http://www.w3.org/2000/svg" xmlns:xlink="http://www.w3.org/1999/xlink" width="13px" height="15px" viewBox="0 0 13 14" version="1.1">
<g id="surface1">
<path style=" stroke:none;fill-rule:nonzero;fill:#fff;fill-opacity:1;" d="M 8.820312 3.5 C 8.820312 2.292969 7.78125 1.3125 6.5 1.3125 C 5.21875 1.3125 4.179688 2.292969 4.179688 3.5 C 4.179688 4.707031 5.21875 5.6875 6.5 5.6875 C 7.78125 5.6875 8.820312 4.707031 8.820312 3.5 Z M 2.785156 3.5 C 2.785156 1.566406 4.449219 0 6.5 0 C 8.550781 0 10.214844 1.566406 10.214844 3.5 C 10.214844 5.433594 8.550781 7 6.5 7 C 4.449219 7 2.785156 5.433594 2.785156 3.5 Z M 1.429688 12.6875 L 11.570312 12.6875 C 11.3125 10.957031 9.734375 9.625 7.824219 9.625 L 5.175781 9.625 C 3.265625 9.625 1.6875 10.957031 1.429688 12.6875 Z M 0 13.1875 C 0 10.496094 2.316406 8.3125 5.175781 8.3125 L 7.824219 8.3125 C 10.683594 8.3125 13 10.496094 13 13.1875 C 13 13.636719 12.613281 14 12.136719 14 L 0.863281 14 C 0.386719 14 0 13.636719 0 13.1875 Z M 0 13.1875 "/>
</g>
</svg>
